PathFileType	4	(X/Y/Z)	C:\Users\dbl\Desktop\20210112\20210112\bx_n_0_1801.trc
DataRate	CameraRate	NumFrames	NumMarkers	Units	OrigDataRate	OrigDataStartFrame	OrigNumFrames
50.00	50.00	       4	43	mm	50.00	199	       397
Frame#	Time	Top.Head			R.Acromium			L.Acromium			Sternum			R.ASIS			L.ASIS			V.Sacral			R.Thigh.Upper			R.Thigh.Front			R.Thigh.Rear			R.Knee.Lat			R.Knee.Med			R.Shank.Upper			R.Shank.Front			R.Shank.Rear			R.Ankle.Lat			R.Midfoot.Lat			R.Toe.Lat			R.Toe.Tip			R.Toe.Med			R.Ankle.Med			R.Midfoot.Sup			R.Heel			L.Thigh.Upper			L.Thigh.Front			L.Thigh.Rear			L.Knee.Lat			L.Knee.Med			L.Shank.Upper			L.Shank.Front			L.Shank.Rear			L.Ankle.Lat			L.Midfoot.Lat			L.Toe.Lat			L.Toe.Tip			L.Toe.Med			L.Ankle.Med			L.Midfoot.Sup			L.Heel			origin1 front left			origin2 front right			origin 3 back right			origin 4 back leftt			
		X1	Y1	Z1	X2	Y2	Z2	X3	Y3	Z3	X4	Y4	Z4	X5	Y5	Z5	X6	Y6	Z6	X7	Y7	Z7	X8	Y8	Z8	X9	Y9	Z9	X10	Y10	Z10	X11	Y11	Z11	X12	Y12	Z12	X13	Y13	Z13	X14	Y14	Z14	X15	Y15	Z15	X16	Y16	Z16	X17	Y17	Z17	X18	Y18	Z18	X19	Y19	Z19	X20	Y20	Z20	X21	Y21	Z21	X22	Y22	Z22	X23	Y23	Z23	X24	Y24	Z24	X25	Y25	Z25	X26	Y26	Z26	X27	Y27	Z27	X28	Y28	Z28	X29	Y29	Z29	X30	Y30	Z30	X31	Y31	Z31	X32	Y32	Z32	X33	Y33	Z33	X34	Y34	Z34	X35	Y35	Z35	X36	Y36	Z36	X37	Y37	Z37	X38	Y38	Z38	X39	Y39	Z39	X40	Y40	Z40	X41	Y41	Z41	X42	Y42	Z42	X43	Y43	Z43	

199	3.960	-376.75790	120.13684	1238.25610	-494.38123	-61.62975	965.67773	-494.39963	287.56790	974.01599	-573.59686	107.94063	773.04260	-825.03040	12.64751	694.40430	-810.97101	255.33548	680.78784	-1022.82208	116.43332	718.80774	-822.19952	-67.62942	631.22675	-725.65063	18.59165	665.90277	-715.20410	-60.04860	594.25812	-579.54968	-35.11511	547.91302	-545.74866	81.40924	538.44159	-562.22681	-33.51979	515.11456	-518.49371	18.98107	466.40903	-628.80719	-39.60467	456.76242	-744.56348	-6.88196	211.11885	-648.38684	-61.12418	168.65137	-608.36499	-64.95284	167.85803	-552.43884	-34.32668	167.75993	-596.63525	25.26546	165.22786	-701.81232	81.89077	204.67398	-669.50269	57.40126	150.81224	-787.09686	52.74528	178.16754	-829.09363	305.90781	599.91211	-712.22070	240.06714	675.08551	-693.29767	297.25098	577.42157	-603.11310	277.29572	541.23877	-525.06873	159.35789	538.73669	-558.57971	271.95529	514.76794	-507.95264	221.14767	478.46619	-615.33630	273.61130	459.81564	-751.18756	220.41708	207.51311	-653.78320	290.19940	158.30205	-619.89282	298.85220	160.47223	-551.39227	251.59511	165.91597	-586.85547	212.89214	174.24744	-694.57422	146.13950	206.16356	-671.17474	165.29057	152.97987	-786.43237	167.30861	190.42801	-528.17499	304.23441	146.64275	-517.85797	-72.84865	143.21252	-875.91577	-78.62540	141.22044	-882.53552	296.14978	144.73410	
200	3.980	-377.04935	120.28558	1237.99878	-494.87653	-61.58662	965.51099	-494.81326	287.62637	973.91809	-574.28888	107.97670	772.93585	-825.24792	12.56223	693.73511	-811.28418	255.56389	680.11121	-1023.24457	115.97137	718.24609	-822.04993	-67.54391	630.90381	-725.79187	18.78097	665.29059	-714.98663	-59.51126	594.02936	-579.36084	-34.54025	547.89685	-545.94434	82.12098	538.39972	-562.09900	-33.03937	515.33044	-518.34088	19.62047	466.49329	-628.72028	-39.12063	456.79306	-744.54285	-6.79718	211.10905	-648.30054	-61.03085	168.78235	-608.32806	-64.93867	167.85674	-552.43927	-34.34894	167.78354	-596.61908	25.29996	165.22691	-701.80170	81.94689	204.62268	-669.54584	57.39823	150.75740	-787.09497	52.78502	178.12697	-829.45648	305.61316	599.68628	-712.81812	239.57216	674.37067	-693.63348	297.09409	577.47614	-602.77985	277.12650	540.90723	-525.34338	159.39006	538.84937	-558.92108	271.80038	514.97473	-508.16901	221.07777	478.70627	-615.56653	273.52283	459.92886	-751.23389	220.38821	207.55684	-653.76349	290.20209	158.32980	-619.78296	298.62210	160.70200	-551.42389	251.55647	165.90546	-586.85760	212.89008	174.23969	-694.55017	146.12532	206.15999	-671.21887	165.35442	152.97028	-786.43158	167.29688	190.42451	-528.17206	304.20590	146.65366	-517.86682	-72.86781	143.20012	-875.90399	-78.63190	141.23140	-882.51575	296.14578	144.73584	
201	4.000	-377.46445	120.30885	1238.05396	-495.30719	-61.55726	965.59253	-495.30438	287.73401	973.99902	-574.89063	108.17200	773.02875	-825.42847	12.46166	693.19043	-811.57556	255.77838	679.58368	-1023.60596	115.52076	717.97351	-822.02081	-67.50665	630.75848	-725.90985	18.91550	664.81689	-714.95313	-59.10971	593.95264	-579.33508	-34.02181	547.91241	-546.15289	82.78047	538.44495	-562.09875	-32.52614	515.53412	-518.33301	20.13688	466.63000	-628.74902	-38.71996	456.92401	-744.50598	-6.73403	211.11722	-648.22723	-60.90303	168.91074	-608.30292	-64.91767	167.83513	-552.45154	-34.35529	167.76715	-596.61951	25.34629	165.23820	-701.80688	82.01456	204.57788	-669.58618	57.43242	150.74353	-787.11499	52.79454	178.08754	-829.86023	305.24991	599.53503	-713.38873	239.02213	673.70105	-693.92078	296.95154	577.65924	-602.47253	276.94858	540.59833	-525.57397	159.30312	538.97717	-559.26257	271.59964	515.22083	-508.45044	220.92703	479.02304	-615.81506	273.42389	460.11148	-751.27814	220.34242	207.59775	-653.73914	290.19778	158.37637	-619.65143	298.43979	160.93591	-551.46832	251.49913	165.87474	-586.85974	212.91060	174.23553	-694.55127	146.09984	206.17368	-671.27203	165.42928	152.95029	-786.43488	167.30360	190.42641	-528.17273	304.21451	146.67667	-517.87286	-72.86614	143.18776	-875.90552	-78.64320	141.30438	-882.49652	296.12198	144.74532	
202	4.020	-377.99438	120.19106	1238.37109	-495.60687	-61.53658	965.83667	-495.89001	287.84036	974.23328	-575.39484	108.40068	773.29425	-825.57208	12.34611	692.76929	-811.84491	255.97862	679.20349	-1023.96252	115.14906	717.95496	-822.12726	-67.52567	630.76941	-726.00665	18.99538	664.47974	-715.09851	-58.94715	594.05084	-579.46136	-33.61839	547.96326	-546.38135	83.29118	538.63684	-562.25171	-32.08631	515.74451	-518.49609	20.49325	466.76663	-628.87573	-38.43372	457.07388	-744.48511	-6.71125	211.14619	-648.17682	-60.75951	169.01602	-608.28058	-64.87735	167.83539	-552.46228	-34.31994	167.72852	-596.64050	25.42293	165.23808	-701.81586	82.06343	204.54619	-669.59998	57.48237	150.77223	-787.16412	52.75850	178.06062	-830.31183	304.88898	599.53516	-713.93146	238.42284	673.08167	-694.24915	296.72592	577.86426	-602.19128	276.76208	540.31195	-525.84369	159.08936	539.16650	-559.57837	271.37009	515.48553	-508.77789	220.68973	479.36356	-616.09326	273.28555	460.34213	-751.32733	220.29024	207.60764	-653.70282	290.18893	158.44722	-619.51978	298.27106	161.17215	-551.50568	251.42603	165.83313	-586.85962	212.92343	174.24979	-694.58435	146.07439	206.20474	-671.31799	165.49582	152.93147	-786.44275	167.30927	190.42130	-528.16962	304.22690	146.68910	-517.86890	-72.83826	143.18231	-875.92963	-78.66699	141.40845	-882.50458	296.09119	144.74889	
